<svg width="232" height="92" viewBox="0 0 232 92" fill="none" xmlns="http://www.w3.org/2000/svg">
<circle cx="1" cy="1" r="1" fill="black"/>
<circle cx="11" cy="1" r="1" fill="black"/>
<circle cx="21" cy="1" r="1" fill="black"/>
<circle cx="31" cy="1" r="1" fill="black"/>
<circle cx="41" cy="1" r="1" fill="black"/>
<circle cx="51" cy="1" r="1" fill="black"/>
<circle cx="1" cy="11" r="1" fill="black"/>
<circle cx="11" cy="11" r="1" fill="black"/>
<circle cx="21" cy="11" r="1" fill="black"/>
<circle cx="31" cy="11" r="1" fill="black"/>
<circle cx="41" cy="11" r="1" fill="black"/>
<circle cx="51" cy="11" r="1" fill="black"/>
<circle cx="1" cy="21" r="1" fill="black"/>
<circle cx="11" cy="21" r="1" fill="black"/>
<circle cx="21" cy="21" r="1" fill="black"/>
<circle cx="31" cy="21" r="1" fill="black"/>
<circle cx="41" cy="21" r="1" fill="black"/>
<circle cx="51" cy="21" r="1" fill="black"/>
<circle cx="1" cy="31" r="1" fill="black"/>
<circle cx="11" cy="31" r="1" fill="black"/>
<circle cx="21" cy="31" r="1" fill="black"/>
<circle cx="31" cy="31" r="1" fill="black"/>
<circle cx="41" cy="31" r="1" fill="black"/>
<circle cx="51" cy="31" r="1" fill="black"/>
<circle cx="1" cy="41" r="1" fill="black"/>
<circle cx="11" cy="41" r="1" fill="black"/>
<circle cx="21" cy="41" r="1" fill="black"/>
<circle cx="31" cy="41" r="1" fill="black"/>
<circle cx="41" cy="41" r="1" fill="black"/>
<circle cx="51" cy="41" r="1" fill="black"/>
<circle cx="61" cy="1" r="1" fill="black"/>
<circle cx="71" cy="1" r="1" fill="black"/>
<circle cx="81" cy="1" r="1" fill="black"/>
<circle cx="91" cy="1" r="1" fill="black"/>
<circle cx="101" cy="1" r="1" fill="black"/>
<circle cx="111" cy="1" r="1" fill="black"/>
<circle cx="61" cy="11" r="1" fill="black"/>
<circle cx="71" cy="11" r="1" fill="black"/>
<circle cx="81" cy="11" r="1" fill="black"/>
<circle cx="91" cy="11" r="1" fill="black"/>
<circle cx="101" cy="11" r="1" fill="black"/>
<circle cx="111" cy="11" r="1" fill="black"/>
<circle cx="61" cy="21" r="1" fill="black"/>
<circle cx="71" cy="21" r="1" fill="black"/>
<circle cx="81" cy="21" r="1" fill="black"/>
<circle cx="91" cy="21" r="1" fill="black"/>
<circle cx="101" cy="21" r="1" fill="black"/>
<circle cx="111" cy="21" r="1" fill="black"/>
<circle cx="61" cy="31" r="1" fill="black"/>
<circle cx="71" cy="31" r="1" fill="black"/>
<circle cx="81" cy="31" r="1" fill="black"/>
<circle cx="91" cy="31" r="1" fill="black"/>
<circle cx="101" cy="31" r="1" fill="black"/>
<circle cx="111" cy="31" r="1" fill="black"/>
<circle cx="61" cy="41" r="1" fill="black"/>
<circle cx="71" cy="41" r="1" fill="black"/>
<circle cx="81" cy="41" r="1" fill="black"/>
<circle cx="91" cy="41" r="1" fill="black"/>
<circle cx="101" cy="41" r="1" fill="black"/>
<circle cx="111" cy="41" r="1" fill="black"/>
<circle cx="1" cy="51" r="1" fill="black"/>
<circle cx="11" cy="51" r="1" fill="black"/>
<circle cx="21" cy="51" r="1" fill="black"/>
<circle cx="31" cy="51" r="1" fill="black"/>
<circle cx="41" cy="51" r="1" fill="black"/>
<circle cx="51" cy="51" r="1" fill="black"/>
<circle cx="1" cy="61" r="1" fill="black"/>
<circle cx="11" cy="61" r="1" fill="black"/>
<circle cx="21" cy="61" r="1" fill="black"/>
<circle cx="31" cy="61" r="1" fill="black"/>
<circle cx="41" cy="61" r="1" fill="black"/>
<circle cx="51" cy="61" r="1" fill="black"/>
<circle cx="1" cy="71" r="1" fill="black"/>
<circle cx="11" cy="71" r="1" fill="black"/>
<circle cx="21" cy="71" r="1" fill="black"/>
<circle cx="31" cy="71" r="1" fill="black"/>
<circle cx="41" cy="71" r="1" fill="black"/>
<circle cx="51" cy="71" r="1" fill="black"/>
<circle cx="1" cy="81" r="1" fill="black"/>
<circle cx="11" cy="81" r="1" fill="black"/>
<circle cx="21" cy="81" r="1" fill="black"/>
<circle cx="31" cy="81" r="1" fill="black"/>
<circle cx="41" cy="81" r="1" fill="black"/>
<circle cx="51" cy="81" r="1" fill="black"/>
<circle cx="1" cy="91" r="1" fill="black"/>
<circle cx="11" cy="91" r="1" fill="black"/>
<circle cx="21" cy="91" r="1" fill="black"/>
<circle cx="31" cy="91" r="1" fill="black"/>
<circle cx="41" cy="91" r="1" fill="black"/>
<circle cx="51" cy="91" r="1" fill="black"/>
<circle cx="61" cy="51" r="1" fill="black"/>
<circle cx="71" cy="51" r="1" fill="black"/>
<circle cx="81" cy="51" r="1" fill="black"/>
<circle cx="91" cy="51" r="1" fill="black"/>
<circle cx="101" cy="51" r="1" fill="black"/>
<circle cx="111" cy="51" r="1" fill="black"/>
<circle cx="61" cy="61" r="1" fill="black"/>
<circle cx="71" cy="61" r="1" fill="black"/>
<circle cx="81" cy="61" r="1" fill="black"/>
<circle cx="91" cy="61" r="1" fill="black"/>
<circle cx="101" cy="61" r="1" fill="black"/>
<circle cx="111" cy="61" r="1" fill="black"/>
<circle cx="61" cy="71" r="1" fill="black"/>
<circle cx="71" cy="71" r="1" fill="black"/>
<circle cx="81" cy="71" r="1" fill="black"/>
<circle cx="91" cy="71" r="1" fill="black"/>
<circle cx="101" cy="71" r="1" fill="black"/>
<circle cx="111" cy="71" r="1" fill="black"/>
<circle cx="61" cy="81" r="1" fill="black"/>
<circle cx="71" cy="81" r="1" fill="black"/>
<circle cx="81" cy="81" r="1" fill="black"/>
<circle cx="91" cy="81" r="1" fill="black"/>
<circle cx="101" cy="81" r="1" fill="black"/>
<circle cx="111" cy="81" r="1" fill="black"/>
<circle cx="61" cy="91" r="1" fill="black"/>
<circle cx="71" cy="91" r="1" fill="black"/>
<circle cx="81" cy="91" r="1" fill="black"/>
<circle cx="91" cy="91" r="1" fill="black"/>
<circle cx="101" cy="91" r="1" fill="black"/>
<circle cx="111" cy="91" r="1" fill="black"/>
<circle cx="121" cy="1" r="1" fill="black"/>
<circle cx="131" cy="1" r="1" fill="black"/>
<circle cx="141" cy="1" r="1" fill="black"/>
<circle cx="151" cy="1" r="1" fill="black"/>
<circle cx="161" cy="1" r="1" fill="black"/>
<circle cx="171" cy="1" r="1" fill="black"/>
<circle cx="121" cy="11" r="1" fill="black"/>
<circle cx="131" cy="11" r="1" fill="black"/>
<circle cx="141" cy="11" r="1" fill="black"/>
<circle cx="151" cy="11" r="1" fill="black"/>
<circle cx="161" cy="11" r="1" fill="black"/>
<circle cx="171" cy="11" r="1" fill="black"/>
<circle cx="121" cy="21" r="1" fill="black"/>
<circle cx="131" cy="21" r="1" fill="black"/>
<circle cx="141" cy="21" r="1" fill="black"/>
<circle cx="151" cy="21" r="1" fill="black"/>
<circle cx="161" cy="21" r="1" fill="black"/>
<circle cx="171" cy="21" r="1" fill="black"/>
<circle cx="121" cy="31" r="1" fill="black"/>
<circle cx="131" cy="31" r="1" fill="black"/>
<circle cx="141" cy="31" r="1" fill="black"/>
<circle cx="151" cy="31" r="1" fill="black"/>
<circle cx="161" cy="31" r="1" fill="black"/>
<circle cx="171" cy="31" r="1" fill="black"/>
<circle cx="121" cy="41" r="1" fill="black"/>
<circle cx="131" cy="41" r="1" fill="black"/>
<circle cx="141" cy="41" r="1" fill="black"/>
<circle cx="151" cy="41" r="1" fill="black"/>
<circle cx="161" cy="41" r="1" fill="black"/>
<circle cx="171" cy="41" r="1" fill="black"/>
<circle cx="181" cy="1" r="1" fill="black"/>
<circle cx="191" cy="1" r="1" fill="black"/>
<circle cx="201" cy="1" r="1" fill="black"/>
<circle cx="211" cy="1" r="1" fill="black"/>
<circle cx="221" cy="1" r="1" fill="black"/>
<circle cx="231" cy="1" r="1" fill="black"/>
<circle cx="181" cy="11" r="1" fill="black"/>
<circle cx="191" cy="11" r="1" fill="black"/>
<circle cx="201" cy="11" r="1" fill="black"/>
<circle cx="211" cy="11" r="1" fill="black"/>
<circle cx="221" cy="11" r="1" fill="black"/>
<circle cx="231" cy="11" r="1" fill="black"/>
<circle cx="181" cy="21" r="1" fill="black"/>
<circle cx="191" cy="21" r="1" fill="black"/>
<circle cx="201" cy="21" r="1" fill="black"/>
<circle cx="211" cy="21" r="1" fill="black"/>
<circle cx="221" cy="21" r="1" fill="black"/>
<circle cx="231" cy="21" r="1" fill="black"/>
<circle cx="181" cy="31" r="1" fill="black"/>
<circle cx="191" cy="31" r="1" fill="black"/>
<circle cx="201" cy="31" r="1" fill="black"/>
<circle cx="211" cy="31" r="1" fill="black"/>
<circle cx="221" cy="31" r="1" fill="black"/>
<circle cx="231" cy="31" r="1" fill="black"/>
<circle cx="181" cy="41" r="1" fill="black"/>
<circle cx="191" cy="41" r="1" fill="black"/>
<circle cx="201" cy="41" r="1" fill="black"/>
<circle cx="211" cy="41" r="1" fill="black"/>
<circle cx="221" cy="41" r="1" fill="black"/>
<circle cx="231" cy="41" r="1" fill="black"/>
<circle cx="121" cy="51" r="1" fill="black"/>
<circle cx="131" cy="51" r="1" fill="black"/>
<circle cx="141" cy="51" r="1" fill="black"/>
<circle cx="151" cy="51" r="1" fill="black"/>
<circle cx="161" cy="51" r="1" fill="black"/>
<circle cx="171" cy="51" r="1" fill="black"/>
<circle cx="121" cy="61" r="1" fill="black"/>
<circle cx="131" cy="61" r="1" fill="black"/>
<circle cx="141" cy="61" r="1" fill="black"/>
<circle cx="151" cy="61" r="1" fill="black"/>
<circle cx="161" cy="61" r="1" fill="black"/>
<circle cx="171" cy="61" r="1" fill="black"/>
<circle cx="121" cy="71" r="1" fill="black"/>
<circle cx="131" cy="71" r="1" fill="black"/>
<circle cx="141" cy="71" r="1" fill="black"/>
<circle cx="151" cy="71" r="1" fill="black"/>
<circle cx="161" cy="71" r="1" fill="black"/>
<circle cx="171" cy="71" r="1" fill="black"/>
<circle cx="121" cy="81" r="1" fill="black"/>
<circle cx="131" cy="81" r="1" fill="black"/>
<circle cx="141" cy="81" r="1" fill="black"/>
<circle cx="151" cy="81" r="1" fill="black"/>
<circle cx="161" cy="81" r="1" fill="black"/>
<circle cx="171" cy="81" r="1" fill="black"/>
<circle cx="121" cy="91" r="1" fill="black"/>
<circle cx="131" cy="91" r="1" fill="black"/>
<circle cx="141" cy="91" r="1" fill="black"/>
<circle cx="151" cy="91" r="1" fill="black"/>
<circle cx="161" cy="91" r="1" fill="black"/>
<circle cx="171" cy="91" r="1" fill="black"/>
<circle cx="181" cy="51" r="1" fill="black"/>
<circle cx="191" cy="51" r="1" fill="black"/>
<circle cx="201" cy="51" r="1" fill="black"/>
<circle cx="211" cy="51" r="1" fill="black"/>
<circle cx="221" cy="51" r="1" fill="black"/>
<circle cx="231" cy="51" r="1" fill="black"/>
<circle cx="181" cy="61" r="1" fill="black"/>
<circle cx="191" cy="61" r="1" fill="black"/>
<circle cx="201" cy="61" r="1" fill="black"/>
<circle cx="211" cy="61" r="1" fill="black"/>
<circle cx="221" cy="61" r="1" fill="black"/>
<circle cx="231" cy="61" r="1" fill="black"/>
<circle cx="181" cy="71" r="1" fill="black"/>
<circle cx="191" cy="71" r="1" fill="black"/>
<circle cx="201" cy="71" r="1" fill="black"/>
<circle cx="211" cy="71" r="1" fill="black"/>
<circle cx="221" cy="71" r="1" fill="black"/>
<circle cx="231" cy="71" r="1" fill="black"/>
<circle cx="181" cy="81" r="1" fill="black"/>
<circle cx="191" cy="81" r="1" fill="black"/>
<circle cx="201" cy="81" r="1" fill="black"/>
<circle cx="211" cy="81" r="1" fill="black"/>
<circle cx="221" cy="81" r="1" fill="black"/>
<circle cx="231" cy="81" r="1" fill="black"/>
<circle cx="181" cy="91" r="1" fill="black"/>
<circle cx="191" cy="91" r="1" fill="black"/>
<circle cx="201" cy="91" r="1" fill="black"/>
<circle cx="211" cy="91" r="1" fill="black"/>
<circle cx="221" cy="91" r="1" fill="black"/>
<circle cx="231" cy="91" r="1" fill="black"/>
</svg>
